<?xml version="1.0" encoding="UTF-8"?>
<svg preserveAspectRatio="xMidYMin" version="1.1" viewBox="0 0 559 302" xmlns="http://www.w3.org/2000/svg">
<g fill-rule="evenodd">
<path d="m279.7 11.867c-0.95703 1.0156-0.89062 2.6914 0.14062 3.5039 2.3984 1.8906 5.4414-1.3086 3.2891-3.4648-0.98047-0.97656-2.5312-0.99609-3.4297-0.039062m2.3086 1.4844c-0.10938 0.75391-1.1016 1.1016-1.4688 0.51563-0.375-0.61719 0.019531-1.1914 0.82031-1.1914 0.59766 0 0.72266 0.13281 0.64844 0.67578m-207.5 259.02c0 0.42578 0.13672 0.77344 0.30469 0.77344 0.16406 0 0.30078-0.26562 0.30078-0.58594 0-0.32422-0.13672-0.66797-0.30078-0.77344-0.17188-0.10547-0.30469 0.14844-0.30469 0.58594m-69.918 8.6758c0.1875 0.5625 0.83594 0.65625 0.83594 0.12109 0-0.26172-0.21484-0.47656-0.47656-0.47656s-0.42578 0.16016-0.35938 0.35547m548.98 0.09375c0 0.27734 0.14453 0.45703 0.32422 0.39844 0.17969-0.0625 0.32422-0.23828 0.32422-0.39844 0-0.15625-0.14453-0.33594-0.32422-0.39453-0.17969-0.058594-0.32422 0.12109-0.32422 0.39453m-1.3594 0.45312c-0.10156 0.16797 0.019531 0.30469 0.26562 0.30469 0.25 0 0.53906-0.13672 0.64063-0.30469 0.10156-0.16406-0.015626-0.30078-0.26563-0.30078s-0.53906 0.13672-0.64062 0.30078m-544.5 0.26953c-0.17969 0.29688 0.5 0.63672 1.2695 0.63672 0.40234 0 0.38281-0.078125-0.097657-0.44141-0.6875-0.51953-0.94141-0.5625-1.1719-0.19531m543.31 0.21094c-0.48828 0.35547-0.50391 0.42578-0.09375 0.42578 0.26953 0 0.58203-0.14453 0.69141-0.32031 0.32031-0.51953 0.035156-0.57031-0.59766-0.10547m-2.9922 0.57813c-0.10547 0.27344 0 0.45312 0.26953 0.45312 0.48828 0 0.59766-0.47266 0.17188-0.73437-0.14844-0.09375-0.34766 0.035156-0.44141 0.28125m-534.7 0.23437c-0.30078 0.36328-0.27734 0.48438 0.13281 0.64063 0.62891 0.24219 0.69141 0.16797 0.44141-0.52734-0.17969-0.48438-0.25391-0.5-0.57422-0.11328m533.11 0.066407c-0.23828 0.625 0.03125 0.87891 0.59375 0.55469 0.37891-0.21484 0.38281-0.30859 0.015625-0.64453-0.34766-0.32422-0.45703-0.30859-0.60938 0.089844m-531.28 0.35156c-0.54297 0.21875-0.14844 0.70312 0.57422 0.70312 0.33594 0 0.55859-0.16016 0.49219-0.35547-0.14453-0.42578-0.54297-0.55469-1.0664-0.34766m529.36 0.10156c-0.25 0.15625-0.65625 0.22656-0.90625 0.15234-0.24609-0.078126-0.65625-0.007813-0.90234 0.15234-0.25 0.16016-0.31641 0.29297-0.15234 0.29688 0.16797 0.007813 0.097656 0.14453-0.15234 0.30469-0.69141 0.44922 0.46875 0.39453 1.3047-0.058594 0.35937-0.19922 0.89453-0.36719 1.1797-0.37891 0.28906-0.007813 0.53906-0.14844 0.55078-0.30859 0.039063-0.42188-0.39453-0.5-0.92188-0.16016m-527.18 0.30859c-0.12109 0.19141-0.10156 0.45312 0.042969 0.58594 0.35547 0.32422 2.793 0.60938 2.957 0.34375 0.26172-0.42578-0.33984-0.9375-1.0547-0.89844-0.40625 0.023437-0.96094-0.050782-1.2344-0.16797-0.27344-0.11719-0.59375-0.058594-0.71094 0.13672m524.06 0.19531c-0.27734 0.27734-0.25391 1.0039 0.035156 1.0039 0.13281 0 0.25781-0.26953 0.28516-0.60156 0.046875-0.64844-0.003906-0.71875-0.32031-0.40234m-520.4 0.55859c-0.12109 0.32031-0.125 0.48047-0.007812 0.36328 0.12109-0.11719 0.38281-0.074219 0.58594 0.09375 0.26172 0.21875 0.42578 0.16406 0.55859-0.1875 0.13281-0.34766 0.0625-0.44531-0.24609-0.32422-0.24219 0.089844-0.48828 0.007813-0.55078-0.17969-0.0625-0.19141-0.21484-0.085938-0.33984 0.23438m2.0977 0.039062c-0.10156 0.26953-0.15234 0.51562-0.10547 0.53906 0.28516 0.16406 1.793 0.77344 1.9062 0.77344 0.41406 0 0.046875-1.2344-0.44922-1.4961-0.80859-0.4375-1.1289-0.39453-1.3516 0.18359m514.41-0.27344c-0.30078 0.070312-0.53516 0.41016-0.54687 0.77734l-0.015626 0.65625-0.47266-0.67578-0.47266-0.67969h-255.18c-249.48 0-255.18 0.011718-255.18 0.56641 0 0.33984 0.32812 0.69141 0.82812 0.87891 1.2773 0.48438 1.8242 0.36328 1.6641-0.36719-0.13281-0.625-0.13281-0.625 0.42188 0.015625 0.875 1.0195 1.5781 1.25 4.5508 1.4805 3.4648 0.27344 3.4648 0.39063 0 1.4414-1.5352 0.46484-3.0273 0.97656-3.3164 1.1328-0.28516 0.15625-0.80078 0.28516-1.1406 0.28516s-1.1523 0.26953-1.8047 0.60156c-0.64844 0.33203-1.3906 0.60547-1.6484 0.60547-0.25391 0-0.46094 0.12891-0.46094 0.28516 0 0.16016-0.47656 0.37891-1.0586 0.48828-0.57813 0.10938-1.0547 0.28516-1.0547 0.39062 0 0.10938-0.55859 0.37109-1.2383 0.58203-0.68359 0.21484-1.4258 0.55469-1.6484 0.75391-0.85547 0.76562-1.2266 1.0352-1.6523 1.2031-0.24609 0.09375-0.078126 0.18359 0.39062 0.19531 1.0508 0.03125 1.0391 0.58203-0.023437 1.4648-1.082 0.89453-1.0156 2.6836 0.10938 2.9648 0.38672 0.097656 0.77344 0.36719 0.86328 0.60156 0.089844 0.23438 0.44141 0.42578 0.77734 0.42578s0.61328 0.13672 0.61328 0.30078c0 0.16406 0.53125 0.30078 1.1836 0.30078s1.3906 0.20312 1.6406 0.45312c0.39844 0.40234 29.531 0.45312 258.57 0.45312 229.04 0 258.18-0.050781 258.58-0.45312 0.27734-0.28125 1.0195-0.45312 1.9375-0.45312 0.82031 0 1.4883-0.13672 1.4883-0.30078 0-0.16406 0.26562-0.30078 0.58984-0.30078 0.32031 0 0.69531-0.17188 0.82812-0.37891 0.13281-0.20703 0.61328-0.57031 1.0703-0.80469 0.82422-0.42578 1.1094-0.92969 0.52734-0.92969-0.16797 0-0.30078-0.20312-0.30078-0.45312s0.14844-0.45312 0.33203-0.45312-0.089844-0.36719-0.60156-0.82031c-1.1055-0.96875-1.2031-1.5859-0.25781-1.6172 0.44922-0.015625 0.52734-0.082031 0.22266-0.19531-0.24609-0.09375-0.55859-0.35547-0.69141-0.57812-0.13281-0.22656-0.49219-0.41016-0.79688-0.41016s-0.63281-0.20312-0.73047-0.45312c-0.09375-0.25-0.50781-0.45313-0.91406-0.45313-0.41016 0-0.94141-0.19531-1.1797-0.4375-0.24219-0.23828-0.79688-0.52734-1.2305-0.63672-0.43359-0.10938-0.78906-0.32031-0.78906-0.46875 0-0.14453-0.23828-0.26953-0.52734-0.27734-0.29297-0.003906-1.0742-0.27344-1.7344-0.59375-0.66406-0.32031-1.5078-0.58594-1.8789-0.59375-0.36719-0.003906-1.1133-0.19531-1.6562-0.42578-3.332-1.3984-4.3828-1.7617-4.9883-1.7344-1.4688 0.066406-0.57422-0.53516 1.0547-0.71094 2.1055-0.22656 3.6953-0.88672 3.6953-1.5273 0-0.26172 0.14453-0.38672 0.32422-0.27734 0.17578 0.10938 0.25781 0.36719 0.17969 0.57031-0.16406 0.42969 0.69141 0.51953 1.1953 0.125 0.18359-0.14453 0.53125-0.19141 0.76953-0.10156 0.23828 0.09375 0.89844-0.023438 1.4688-0.25391 0.57422-0.23437 1.2109-0.36328 1.418-0.28516 0.20703 0.074219 0.375-0.058594 0.375-0.29297 0-0.64844-0.34766-0.86328-0.80078-0.48828-0.25781 0.21484-0.53906 0.23438-0.78125 0.050782-0.20703-0.15625-0.61328-0.23047-0.90234-0.16797m-5.125 1.6445c-0.066406 0.19531-0.28125 0.41016-0.47656 0.47656-0.21875 0.074219-0.28906-0.066406-0.17578-0.35937 0.21094-0.54688 0.83594-0.66406 0.65234-0.11719" fill="#1c1c1c"/>
<path d="m85.859 0.75391c-0.8125 0.39062-1.5898 0.89062-1.7305 1.1094s-0.25781 0.28125-0.25781 0.14062c-0.015625-0.69531-4.832 3.2109-4.832 3.918 0 0.23047-0.11328 0.41406-0.25391 0.41406-0.13672 0-0.66016 0.64844-1.1641 1.4375-1.2031 1.8789-1.668 2.7891-1.4219 2.7891 0.10938 0 0.046875 0.17969-0.13281 0.40234-0.18359 0.21875-0.375 0.66406-0.42578 0.98047-0.046875 0.32031-0.20703 0.76953-0.35156 1.0039-0.19922 0.31641-0.15625 0.35938 0.15625 0.16797 0.36328-0.21484 0.36328-0.17969 0.011719 0.25391-0.22656 0.28125-0.33984 0.78125-0.25391 1.1133 0.085937 0.33594 0.050781 0.53906-0.082031 0.45703-0.94922-0.58594-0.95312 254.2-0.003906 255.4l0.60156 0.76953v-2.5391c0-1.8633 0.13281-2.7266 0.49609-3.2461 0.45703-0.65234 0.50391-10.387 0.62109-124.94 0.082031-79.234 0.23437-124.79 0.42578-125.78 1.1445-6 6.6602-11.301 13.152-12.645 3.6367-0.75391 374.48-0.51562 376.94 0.23828 5.5586 1.7148 9.4688 5.3633 11.715 10.934l0.73047 1.8086 0.19141 68.664c0.10547 37.766 0.21094 94.297 0.23438 125.63 0.027344 37.75 0.14453 56.969 0.34375 56.969 0.16406 0 0.3125-0.16797 0.33203-0.37891 0.058593-0.73047 0.51172 1.1484 0.54297 2.2383 0.039063 1.4258 0.28906 2.0625 0.81641 2.0625 0.35938 0 0.41016-18.52 0.34375-127.74l-0.074218-127.74-0.65625-1.5938c-0.35938-0.875-0.64844-1.6211-0.63672-1.6562 0.089844-0.28125-0.46484-1.4258-0.69141-1.4258-0.15234 0-0.28125-0.20703-0.28125-0.46094 0-1.918-6.293-8.0586-8.6875-8.4766-0.21484-0.039063-0.71875-0.28516-1.1172-0.54688-0.66016-0.42969-18.27-0.47266-191.93-0.45312l-191.2 0.023438-1.4727 0.70703m22.895 1.957c-17.141 0.14453-19.137 0.21094-20.328 0.6875-5.3828 2.1445-9.2578 6.6094-10.289 11.848-0.53125 2.707-0.3125 251.88 0.22266 252.52 0.33594 0.40234 22.305 0.47266 195.94 0.64453 107.56 0.10547 196.78 0.20703 198.27 0.22656 5.2422 0.066406 5.8008 0.011719 6.0312-0.55469 0.38281-0.94531 0.5625-250.5 0.18359-252.54-1.2188-6.5508-6.6094-11.719-13.367-12.816-1.9727-0.32031-319-0.33594-356.66-0.015624m174.84 8.7344c1.9414 1.9414 0.47266 5.1562-2.3555 5.1562-1.1211 0-2.1641-0.75781-2.6523-1.9297-1.2656-3.0312 2.668-5.5664 5.0078-3.2266m176.75 126.48v115.89h-363.52v-231.79h363.52v115.9m-460.35 138.5v3.2852l1.1289-0.40625c0.9375-0.33203 21.098-0.40625 117.47-0.41797 105.8-0.011719 116.35-0.054688 116.52-0.48828 0.35156-0.91406 0.19531-3.6641-0.22656-4.0156-0.30469-0.25391-21.25-0.33984-79.84-0.33594-70.523 0.007813-79.484-0.042969-79.934-0.44922-0.44531-0.40234-4.9141-0.45703-37.812-0.45703h-37.309v3.2852m482.05-2.832c-0.40625 0.41016-9.0156 0.46875-78.125 0.53125l-77.668 0.070312-0.20312 1.9648c-0.23828 2.2852-0.078126 3.1328 0.54687 2.8906 1.2539-0.48047 230.06-0.19531 230.8 0.28906 1.3945 0.91797 1.6289 0.46875 1.5352-2.9492l-0.089844-3.0977-38.168-0.082031c-33.859-0.066407-38.223-0.023438-38.629 0.38281m-239.66 0.67578c-1.5977 0.15625-1.6055 0.17188-1.7734 2.8477-0.12109 1.957-0.066406 2.3516 0.36328 2.5625 0.64453 0.32031 76.02 0.49219 78.195 0.17969l1.6328-0.23438 0.015625-5.125-1.5078-0.20312c-1.582-0.20703-74.836-0.23828-76.926-0.027344m268.05 1.2969c0.33203 0.17578 0.58594 0.62891 0.58594 1.043 0 1.2109-0.78125 1.3594-7.1992 1.3594-6.2656 0-6.9805-0.13672-6.9805-1.3594 0-1.2148 0.71484-1.3555 6.9805-1.3555 3.5781 0 6.2695 0.125 6.6133 0.3125m-12.316 0.96484c0.16406 0.48438 11.648 0.5625 11.77 0.078125 0.046875-0.19141-2.1094-0.32812-5.9102-0.38281-4.7344-0.0625-5.957 0-5.8594 0.30469" fill="#d5d5d5"/>
<path d="m77.312 269.22c0 0.74609 0.058594 1.0508 0.12891 0.67578 0.074219-0.37109 0.074219-0.98438 0-1.3555-0.070312-0.375-0.12891-0.070312-0.12891 0.67969m401.95 1.4297c-0.56641 0.91406-1.0078 2.793-0.65625 2.793 0.38672 0 1.2695-2.6055 0.98047-2.8945-0.089843-0.089844-0.23828-0.042969-0.32422 0.10156m-401.84 0.32422c-0.19531 0.3125 0.33984 2.1406 0.75391 2.6016 0.5 0.55078 0.53516-0.023438 0.078125-1.3477-0.53516-1.5547-0.59375-1.6406-0.83203-1.2539m404.07 1.2344c-0.39453 0.74219-0.41016 1.5391-0.023437 1.5391 0.16016 0 0.20703-0.22656 0.10156-0.49609-0.11328-0.30078 0.015625-0.64844 0.32812-0.87891 0.3125-0.22656 0.39844-0.45703 0.21484-0.56641-0.16797-0.10547-0.44531 0.078124-0.62109 0.40234m-479.75 7.4883c0.61328 0.078126 0.98047 0.29297 0.98047 0.57422 0 0.25 0.14062 0.36719 0.30469 0.26172 0.17188-0.10156 0.24609-0.29297 0.16797-0.41797-0.21094-0.33984 0.60547-0.30469 3.2773 0.15625 4.3438 0.74219 543.27 0.79688 546.17 0.054688 1.1758-0.30078 1.375-0.27344 1.7344 0.22266 0.39062 0.53125 0.41016 0.52344 0.41016-0.10547 0-0.75 0.53516-0.89062 0.79297-0.21094 0.097657 0.25 0.29688 0.375 0.44922 0.28125 0.15234-0.09375 0.18359-0.31641 0.074219-0.49609-0.13672-0.21875 0.082031-0.25781 0.67578-0.11719 0.64062 0.14844 0.75 0.12109 0.42188-0.10547-0.91797-0.61719-228.89-0.41016-232.61 0.21484-4.3945 0.73828-83.5 0.82031-86.258 0.085938-1.4375-0.37891-17.371-0.44141-119.61-0.47656-64.875-0.023438-117.51 0.011718-116.97 0.078124" fill="#636363"/>
<path d="m281.59 11.164c0.65234 0.125 1.4336 0.53125 1.7344 0.90234s0.54688 0.53516 0.54688 0.36328c0-0.60547-1.5898-1.5664-2.5312-1.5312-0.875 0.035156-0.85547 0.050781 0.25 0.26562m-2.7773 2.418c0 0.58203 0.0625 0.82031 0.13672 0.52734 0.074219-0.28906 0.074219-0.76562 0-1.0547-0.074219-0.29297-0.13672-0.054688-0.13672 0.52734m1.6484-0.5c-0.23438 0.60938 0.24219 1.1758 0.88281 1.0547 0.91406-0.17578 0.92969-1.4609 0.015625-1.4609-0.41016 0-0.8125 0.18359-0.89844 0.40625m-205.41 259.49c0.066406 0.47656 0.24609 0.87109 0.39453 0.87109 0.42578 0 0.30859-1.4258-0.12891-1.5938-0.28516-0.11328-0.35938 0.089844-0.26562 0.72266m406.52 0.12891c-0.097657 0.25781-0.10156 0.54297-0.011719 0.63672 0.26562 0.26172 0.8125-0.18359 0.8125-0.66797 0-0.57812-0.57422-0.55469-0.80078 0.03125m-480.6 7.2539c0.097657 0.097656 0.35547 0.20312 0.58203 0.23438 0.21875 0.035156 0.57422 0.16797 0.78125 0.29688 0.23828 0.15234 0.375 0.066406 0.375-0.23438 0-0.32422-0.29297-0.46875-0.95703-0.46875-0.52344 0-0.875 0.078125-0.78125 0.17188m2.1328 0.25391c0.10156 0.57031 0.63281 0.78516 1.4922 0.60547 0.59375-0.125 0.82813-0.054688 0.82813 0.25 0 0.45312 0.12109 0.49219 1.8125 0.62109 0.57812 0.042968 1.3633 0.25 1.7383 0.46094 0.37891 0.20703 0.82031 0.29688 0.98047 0.19922 0.16406-0.10156 0.29687-0.039062 0.29687 0.13672s0.10156 0.29688 0.22656 0.26562c0.12109-0.027344 0.73438 0.058594 1.3594 0.1875 0.76953 0.16016 1.2773 0.11719 1.582-0.13672 0.36719-0.30469 0.45312-0.28516 0.45312 0.097656 0 0.69141 0.5 0.88672 1.25 0.48438 0.55078-0.29688 0.73047-0.26172 1.0742 0.21094 0.42578 0.58203 0.57422 0.58984 1.207 0.0625 0.19922-0.16797 0.53516-0.19531 0.74219-0.066406 0.21094 0.12891 0.76172 0.20703 1.2227 0.17187 0.75781-0.058593 0.98828 0.1875 0.875 0.92578-0.042969 0.26562 1.0625 0.13281 1.3633-0.16797 0.35547-0.35547 0.69922-0.23047 0.53516 0.19531-0.085938 0.22656 0.046874 0.40234 0.30859 0.40234 0.25391 0 0.53906-0.25 0.63672-0.55469 0.29297-0.91797 1.5352-0.57422 1.9609 0.54297 0.15234 0.39844 0.50781 0.70703 0.80469 0.69141 0.31641-0.015625 0.38281-0.085938 0.16016-0.17578-0.20703-0.085938-0.375-0.41406-0.375-0.73047 0-0.91406 510.23-0.91016 510.72 0 0.20703 0.39453 0.20703 0.62891 0 0.73438-0.16797 0.082031-0.13281 0.11719 0.078125 0.074218 0.21094-0.042968 0.42969-0.35937 0.47656-0.69922 0.10547-0.70703 1.0547-1.082 1.5312-0.60547 0.21875 0.21875 0.45312 0.19531 0.77344-0.070313 0.37891-0.3125 0.49609-0.30078 0.64062 0.085938 0.21094 0.54297 1.3398 0.55078 1.3398 0.007812 0-0.20703 0.15625-0.47266 0.35156-0.58984 0.23828-0.14844 0.28906-0.054688 0.16016 0.28516-0.21875 0.5625 0.023437 0.63281 0.69141 0.19922 0.25-0.16016 0.32031-0.30078 0.15234-0.30859-0.16406-0.007812-0.066406-0.14844 0.22266-0.31641 0.35938-0.21094 0.72266-0.19922 1.168 0.039062 0.35547 0.19141 0.55859 0.21094 0.45703 0.042969-0.25781-0.41797 0.75-0.75391 1.1289-0.375 0.47266 0.47656 0.70703 0.37891 0.91016-0.36719 0.13672-0.49219 0.25391-0.57422 0.4375-0.28906 0.26172 0.40625 1.2578 0.19531 1.2578-0.27344 0-0.14844 0.24219-0.12109 0.53906 0.0625 0.40625 0.25781 0.81641 0.21875 1.7344-0.16016 0.65625-0.27734 1.2617-0.50781 1.3438-0.51172 0.085938-0.007812 0.32031-0.14844 0.52734-0.32031 0.20312-0.16797 0.57812-0.23047 0.82812-0.13281 0.28906 0.10937 0.45703 0 0.45703-0.30078 0-0.30859 0.16797-0.41406 0.47656-0.29297 0.30469 0.11719 0.42969 0.046874 0.34766-0.19531-0.078125-0.22266-0.48438-0.32812-1.0039-0.25781-0.48047 0.0625-41.262 0.16016-90.625 0.21875-49.359 0.058594-119.55 0.14063-155.96 0.18359-150.27 0.1875-297.8-0.054687-300.34-0.48438-2.8398-0.48828-3.4336-0.5-3.3555-0.0625m551.67 0.14453c0 0.42969 0.13672 0.5625 0.46484 0.4375 0.51562-0.19531 0.45312-0.75391-0.10938-0.94141-0.19531-0.0625-0.35547 0.15625-0.35547 0.50391m-526.79 5.1016c-0.097656 0.37109 0.035156 0.55859 0.41797 0.58594 0.46484 0.035157 0.50391-0.058593 0.24609-0.54297-0.38672-0.72266-0.48438-0.73047-0.66406-0.042969m506.2 0.039063c-0.10938 0.42578-0.003907 0.57422 0.39453 0.54297 0.42969-0.03125 0.48438-0.16016 0.25781-0.58203-0.36328-0.68359-0.46484-0.67969-0.65234 0.039063m-2.4492 0.5c-0.11328 0.29297-0.042969 0.43359 0.17578 0.35937 0.44922-0.15234 0.69922-0.83594 0.30078-0.83594-0.16016 0-0.375 0.21484-0.47656 0.47656" fill="#5b5b5b"/>
<path d="m90.199 1.9766c-6.3203 1.3711-11.812 6.7227-12.938 12.625-0.19141 0.98828-0.34375 46.547-0.42578 125.78-0.11719 114.55-0.16406 124.29-0.62109 124.94-0.36328 0.51953-0.49609 1.3828-0.49609 3.2383v2.5312l-0.59375-0.71094-0.59375-0.71484-0.007812 0.97266c-0.007813 0.71094 0.10156 0.92969 0.41016 0.80859 0.50781-0.19141 0.64453 0.011719 0.93359 1.3594 0.19922 0.91797 0.16406 1.0039-0.33984 0.8125-0.39844-0.15234-0.46875-0.12109-0.23828 0.10938 0.22656 0.23047 23.551 0.32031 79.758 0.31641 58.594-0.003906 79.543 0.082031 79.848 0.33594 0.44922 0.37109 0.57031 3.4688 0.16406 4.1133-0.19141 0.30078-24.238 0.39062-116.97 0.45312-77.145 0.050781-116.91 0.17969-117.24 0.37891-0.33984 0.19922 38.738 0.30469 117.65 0.3125 102.55 0.011719 118.38 0.070313 119.82 0.45312 2.7969 0.74219 81.066 0.64844 86.281-0.10156 3.5859-0.51953 9.3125-0.53906 118.48-0.45313 91.832 0.074219 114.62 0.015626 114.2-0.28516-0.37109-0.27344-2.1484-0.37891-6.2656-0.38672-68.742-0.066407-224.1 0.0625-224.43 0.1875-0.62109 0.23828-0.78125-0.61328-0.54297-2.8945l0.20312-1.9648 77.668-0.070312c68.816-0.0625 77.711-0.12109 78.059-0.52734 0.21484-0.25 0.23047-0.32031 0.03125-0.15234-0.9375 0.77344-1.2227-0.52344-0.32031-1.4492 0.71484-0.73438 0.80469-1.4883 0.24219-2.0547-0.26172-0.25781-0.48047-1.0273-0.49609-1.7266-0.03125-1.1992-0.48047-3.1875-0.54297-2.3945-0.019532 0.21094-0.16797 0.37891-0.33203 0.37891-0.19922 0-0.31641-19.219-0.34375-56.969-0.023437-31.332-0.12891-87.863-0.23438-125.63l-0.19141-68.664-0.73047-1.8086c-2.2461-5.5703-6.1562-9.2188-11.715-10.934-2.375-0.73047-373.78-0.94531-377.15-0.21875m375.22 0.75c6.7578 1.0977 12.148 6.2656 13.367 12.816 0.37891 2.0391 0.19922 251.6-0.18359 252.54-0.23047 0.56641-0.78906 0.62109-6.0312 0.55469-1.4922-0.019531-90.715-0.12109-198.27-0.22656-173.63-0.17187-195.6-0.24219-195.94-0.64453-0.53516-0.64844-0.75391-249.82-0.22266-252.52 1.0312-5.2383 4.9062-9.7031 10.289-11.848 1.1914-0.47656 3.1875-0.54297 20.328-0.6875 37.66-0.32031 354.69-0.30469 356.66 0.015624m-186.01 8.5898c-1.0664 0.89453-1.3516 2.0742-0.81641 3.3555 1.3594 3.2578 5.8867 2.1562 5.8867-1.4297 0-2.3203-3.1719-3.5234-5.0703-1.9258m3.5898-0.0625c2.8203 2.1641-0.21094 6.5195-3.1836 4.5703-1.5195-0.99609-1.5-3.7227 0.035156-4.6172 0.75-0.4375 2.5547-0.41016 3.1484 0.046875m-205.55 258.64c-0.070312 0.375-0.12891 0.070313-0.12891-0.67578 0-0.75 0.058594-1.0547 0.12891-0.67969 0.074219 0.37109 0.074219 0.98438 0 1.3555m401.92 2.1797c-0.20703 0.75391-0.55078 1.3672-0.75781 1.3672-0.35156 0 0.089844-1.8789 0.65625-2.793 0.39453-0.64063 0.45313 0.17969 0.10156 1.4258m-401.11 0.15234c0.45703 1.3242 0.42188 1.8984-0.078125 1.3477-0.41406-0.46094-0.94922-2.2891-0.75391-2.6016 0.23828-0.38672 0.29688-0.30078 0.83203 1.2539m241.07 2.0703 1.5078 0.20312-0.015625 5.125-1.6328 0.23438c-2.1758 0.3125-77.551 0.14062-78.195-0.17969-0.51953-0.25391-0.52344-4.5781-0.007813-5.0859 0.49219-0.48047 74.836-0.75781 78.344-0.29688m178.01 1.4297c-1.7578 1.7578-0.35547 2.2422 6.5078 2.2422 6.418 0 7.1992-0.14844 7.1992-1.3594s-0.78125-1.3555-7.1992-1.3555c-5.082 0-6.1055 0.074219-6.5078 0.47266m12.574 0.88281c-0.12109 0.48438-11.605 0.40625-11.77-0.078125-0.097656-0.30469 1.125-0.36719 5.8594-0.30469 3.8008 0.054688 5.957 0.19141 5.9102 0.38281" fill="#8c8c8c"/>
</g>
</svg>
