<?xml version="1.0" encoding="UTF-8"?>
<svg xmlns="http://www.w3.org/2000/svg" 
    xmlns:xlink="http://www.w3.org/1999/xlink" viewBox="0 0 559 302"  preserveAspectRatio="xMidYMin slice" version="1.1">
    <g id="surface1">
        <path style=" stroke:none;fill-rule:evenodd;fill:rgb(11.372549%,11.372549%,11.372549%);fill-opacity:1;" d="M 279.703125 11.867188 C 278.746094 12.882812 278.8125 14.558594 279.84375 15.371094 C 282.242188 17.261719 285.285156 14.0625 283.132812 11.90625 C 282.152344 10.929688 280.601562 10.910156 279.703125 11.867188 M 282.011719 13.351562 C 281.902344 14.105469 280.910156 14.453125 280.542969 13.867188 C 280.167969 13.25 280.5625 12.675781 281.363281 12.675781 C 281.960938 12.675781 282.085938 12.808594 282.011719 13.351562 M 74.511719 272.367188 C 74.511719 272.792969 74.648438 273.140625 74.816406 273.140625 C 74.980469 273.140625 75.117188 272.875 75.117188 272.554688 C 75.117188 272.230469 74.980469 271.886719 74.816406 271.78125 C 74.644531 271.675781 74.511719 271.929688 74.511719 272.367188 M 4.59375 281.042969 C 4.78125 281.605469 5.429688 281.699219 5.429688 281.164062 C 5.429688 280.902344 5.214844 280.6875 4.953125 280.6875 C 4.691406 280.6875 4.527344 280.847656 4.59375 281.042969 M 553.570312 281.136719 C 553.570312 281.414062 553.714844 281.59375 553.894531 281.535156 C 554.074219 281.472656 554.21875 281.296875 554.21875 281.136719 C 554.21875 280.980469 554.074219 280.800781 553.894531 280.742188 C 553.714844 280.683594 553.570312 280.863281 553.570312 281.136719 M 552.210938 281.589844 C 552.109375 281.757812 552.230469 281.894531 552.476562 281.894531 C 552.726562 281.894531 553.015625 281.757812 553.117188 281.589844 C 553.21875 281.425781 553.101562 281.289062 552.851562 281.289062 C 552.601562 281.289062 552.3125 281.425781 552.210938 281.589844 M 7.710938 281.859375 C 7.53125 282.15625 8.210938 282.496094 8.980469 282.496094 C 9.382812 282.496094 9.363281 282.417969 8.882812 282.054688 C 8.195312 281.535156 7.941406 281.492188 7.710938 281.859375 M 551.023438 282.070312 C 550.535156 282.425781 550.519531 282.496094 550.929688 282.496094 C 551.199219 282.496094 551.511719 282.351562 551.621094 282.175781 C 551.941406 281.65625 551.65625 281.605469 551.023438 282.070312 M 548.03125 282.648438 C 547.925781 282.921875 548.03125 283.101562 548.300781 283.101562 C 548.789062 283.101562 548.898438 282.628906 548.472656 282.367188 C 548.324219 282.273438 548.125 282.402344 548.03125 282.648438 M 13.328125 282.882812 C 13.027344 283.246094 13.050781 283.367188 13.460938 283.523438 C 14.089844 283.765625 14.152344 283.691406 13.902344 282.996094 C 13.722656 282.511719 13.648438 282.496094 13.328125 282.882812 M 546.4375 282.949219 C 546.199219 283.574219 546.46875 283.828125 547.03125 283.503906 C 547.410156 283.289062 547.414062 283.195312 547.046875 282.859375 C 546.699219 282.535156 546.589844 282.550781 546.4375 282.949219 M 15.15625 283.300781 C 14.613281 283.519531 15.007812 284.003906 15.730469 284.003906 C 16.066406 284.003906 16.289062 283.84375 16.222656 283.648438 C 16.078125 283.222656 15.679688 283.09375 15.15625 283.300781 M 544.519531 283.402344 C 544.269531 283.558594 543.863281 283.628906 543.613281 283.554688 C 543.367188 283.476562 542.957031 283.546875 542.710938 283.707031 C 542.460938 283.867188 542.394531 284 542.558594 284.003906 C 542.726562 284.011719 542.65625 284.148438 542.40625 284.308594 C 541.714844 284.757812 542.875 284.703125 543.710938 284.25 C 544.070312 284.050781 544.605469 283.882812 544.890625 283.871094 C 545.179688 283.863281 545.429688 283.722656 545.441406 283.5625 C 545.480469 283.140625 545.046875 283.0625 544.519531 283.402344 M 17.34375 283.710938 C 17.222656 283.902344 17.242188 284.164062 17.386719 284.296875 C 17.742188 284.621094 20.179688 284.90625 20.34375 284.640625 C 20.605469 284.214844 20.003906 283.703125 19.289062 283.742188 C 18.882812 283.765625 18.328125 283.691406 18.054688 283.574219 C 17.78125 283.457031 17.460938 283.515625 17.34375 283.710938 M 541.402344 283.90625 C 541.125 284.183594 541.148438 284.910156 541.4375 284.910156 C 541.570312 284.910156 541.695312 284.640625 541.722656 284.308594 C 541.769531 283.660156 541.71875 283.589844 541.402344 283.90625 M 21.003906 284.464844 C 20.882812 284.785156 20.878906 284.945312 20.996094 284.828125 C 21.117188 284.710938 21.378906 284.753906 21.582031 284.921875 C 21.84375 285.140625 22.007812 285.085938 22.140625 284.734375 C 22.273438 284.386719 22.203125 284.289062 21.894531 284.410156 C 21.652344 284.5 21.40625 284.417969 21.34375 284.230469 C 21.28125 284.039062 21.128906 284.144531 21.003906 284.464844 M 23.101562 284.503906 C 23 284.773438 22.949219 285.019531 22.996094 285.042969 C 23.28125 285.207031 24.789062 285.816406 24.902344 285.816406 C 25.316406 285.816406 24.949219 284.582031 24.453125 284.320312 C 23.644531 283.882812 23.324219 283.925781 23.101562 284.503906 M 537.507812 284.230469 C 537.207031 284.300781 536.972656 284.640625 536.960938 285.007812 L 536.945312 285.664062 L 536.472656 284.988281 L 536 284.308594 L 280.820312 284.308594 C 31.335938 284.308594 25.644531 284.320312 25.644531 284.875 C 25.644531 285.214844 25.972656 285.566406 26.472656 285.753906 C 27.75 286.238281 28.296875 286.117188 28.136719 285.386719 C 28.003906 284.761719 28.003906 284.761719 28.558594 285.402344 C 29.433594 286.421875 30.136719 286.652344 33.109375 286.882812 C 36.574219 287.15625 36.574219 287.273438 33.109375 288.324219 C 31.574219 288.789062 30.082031 289.300781 29.792969 289.457031 C 29.507812 289.613281 28.992188 289.742188 28.652344 289.742188 C 28.3125 289.742188 27.5 290.011719 26.847656 290.34375 C 26.199219 290.675781 25.457031 290.949219 25.199219 290.949219 C 24.945312 290.949219 24.738281 291.078125 24.738281 291.234375 C 24.738281 291.394531 24.261719 291.613281 23.679688 291.722656 C 23.101562 291.832031 22.625 292.007812 22.625 292.113281 C 22.625 292.222656 22.066406 292.484375 21.386719 292.695312 C 20.703125 292.910156 19.960938 293.25 19.738281 293.449219 C 18.882812 294.214844 18.511719 294.484375 18.085938 294.652344 C 17.839844 294.746094 18.007812 294.835938 18.476562 294.847656 C 19.527344 294.878906 19.515625 295.429688 18.453125 296.3125 C 17.371094 297.207031 17.4375 298.996094 18.5625 299.277344 C 18.949219 299.375 19.335938 299.644531 19.425781 299.878906 C 19.515625 300.113281 19.867188 300.304688 20.203125 300.304688 C 20.539062 300.304688 20.816406 300.441406 20.816406 300.605469 C 20.816406 300.769531 21.347656 300.90625 22 300.90625 C 22.652344 300.90625 23.390625 301.109375 23.640625 301.359375 C 24.039062 301.761719 53.171875 301.8125 282.214844 301.8125 C 511.257812 301.8125 540.390625 301.761719 540.792969 301.359375 C 541.070312 301.078125 541.8125 300.90625 542.730469 300.90625 C 543.550781 300.90625 544.21875 300.769531 544.21875 300.605469 C 544.21875 300.441406 544.484375 300.304688 544.808594 300.304688 C 545.128906 300.304688 545.503906 300.132812 545.636719 299.925781 C 545.769531 299.71875 546.25 299.355469 546.707031 299.121094 C 547.53125 298.695312 547.816406 298.191406 547.234375 298.191406 C 547.066406 298.191406 546.933594 297.988281 546.933594 297.738281 C 546.933594 297.488281 547.082031 297.285156 547.265625 297.285156 C 547.449219 297.285156 547.175781 296.917969 546.664062 296.464844 C 545.558594 295.496094 545.460938 294.878906 546.40625 294.847656 C 546.855469 294.832031 546.933594 294.765625 546.628906 294.652344 C 546.382812 294.558594 546.070312 294.296875 545.9375 294.074219 C 545.804688 293.847656 545.445312 293.664062 545.140625 293.664062 C 544.835938 293.664062 544.507812 293.460938 544.410156 293.210938 C 544.316406 292.960938 543.902344 292.757812 543.496094 292.757812 C 543.085938 292.757812 542.554688 292.5625 542.316406 292.320312 C 542.074219 292.082031 541.519531 291.792969 541.085938 291.683594 C 540.652344 291.574219 540.296875 291.363281 540.296875 291.214844 C 540.296875 291.070312 540.058594 290.945312 539.769531 290.9375 C 539.476562 290.933594 538.695312 290.664062 538.035156 290.34375 C 537.371094 290.023438 536.527344 289.757812 536.15625 289.75 C 535.789062 289.746094 535.042969 289.554688 534.5 289.324219 C 531.167969 287.925781 530.117188 287.5625 529.511719 287.589844 C 528.042969 287.65625 528.9375 287.054688 530.566406 286.878906 C 532.671875 286.652344 534.261719 285.992188 534.261719 285.351562 C 534.261719 285.089844 534.40625 284.964844 534.585938 285.074219 C 534.761719 285.183594 534.84375 285.441406 534.765625 285.644531 C 534.601562 286.074219 535.457031 286.164062 535.960938 285.769531 C 536.144531 285.625 536.492188 285.578125 536.730469 285.667969 C 536.96875 285.761719 537.628906 285.644531 538.199219 285.414062 C 538.773438 285.179688 539.410156 285.050781 539.617188 285.128906 C 539.824219 285.203125 539.992188 285.070312 539.992188 284.835938 C 539.992188 284.1875 539.644531 283.972656 539.191406 284.347656 C 538.933594 284.5625 538.652344 284.582031 538.410156 284.398438 C 538.203125 284.242188 537.796875 284.167969 537.507812 284.230469 M 532.382812 285.875 C 532.316406 286.070312 532.101562 286.285156 531.90625 286.351562 C 531.6875 286.425781 531.617188 286.285156 531.730469 285.992188 C 531.941406 285.445312 532.566406 285.328125 532.382812 285.875 "/>
        <path style=" stroke:none;fill-rule:evenodd;fill:rgb(83.529412%,83.529412%,83.529412%);fill-opacity:1;" d="M 85.859375 0.753906 C 85.046875 1.144531 84.269531 1.644531 84.128906 1.863281 C 83.988281 2.082031 83.871094 2.144531 83.871094 2.003906 C 83.855469 1.308594 79.039062 5.214844 79.039062 5.921875 C 79.039062 6.152344 78.925781 6.335938 78.785156 6.335938 C 78.648438 6.335938 78.125 6.984375 77.621094 7.773438 C 76.417969 9.652344 75.953125 10.5625 76.199219 10.5625 C 76.308594 10.5625 76.246094 10.742188 76.066406 10.964844 C 75.882812 11.183594 75.691406 11.628906 75.640625 11.945312 C 75.59375 12.265625 75.433594 12.714844 75.289062 12.949219 C 75.089844 13.265625 75.132812 13.308594 75.445312 13.117188 C 75.808594 12.902344 75.808594 12.9375 75.457031 13.371094 C 75.230469 13.652344 75.117188 14.152344 75.203125 14.484375 C 75.289062 14.820312 75.253906 15.023438 75.121094 14.941406 C 74.171875 14.355469 74.167969 269.136719 75.117188 270.339844 L 75.71875 271.109375 L 75.71875 268.570312 C 75.71875 266.707031 75.851562 265.84375 76.214844 265.324219 C 76.671875 264.671875 76.71875 254.9375 76.835938 140.382812 C 76.917969 61.148438 77.070312 15.589844 77.261719 14.601562 C 78.40625 8.601562 83.921875 3.300781 90.414062 1.957031 C 94.050781 1.203125 464.898438 1.441406 467.351562 2.195312 C 472.910156 3.910156 476.820312 7.558594 479.066406 13.128906 L 479.796875 14.9375 L 479.988281 83.601562 C 480.09375 121.367188 480.199219 177.898438 480.222656 209.230469 C 480.25 246.980469 480.367188 266.199219 480.566406 266.199219 C 480.730469 266.199219 480.878906 266.03125 480.898438 265.820312 C 480.957031 265.089844 481.410156 266.96875 481.441406 268.058594 C 481.480469 269.484375 481.730469 270.121094 482.257812 270.121094 C 482.617188 270.121094 482.667969 251.601562 482.601562 142.378906 L 482.527344 14.636719 L 481.871094 13.042969 C 481.511719 12.167969 481.222656 11.421875 481.234375 11.386719 C 481.324219 11.105469 480.769531 9.960938 480.542969 9.960938 C 480.390625 9.960938 480.261719 9.753906 480.261719 9.5 C 480.261719 7.582031 473.96875 1.441406 471.574219 1.023438 C 471.359375 0.984375 470.855469 0.738281 470.457031 0.476562 C 469.796875 0.046875 452.1875 0.00390625 278.53125 0.0234375 L 87.332031 0.046875 L 85.859375 0.753906 M 108.753906 2.710938 C 91.613281 2.855469 89.617188 2.921875 88.425781 3.398438 C 83.042969 5.542969 79.167969 10.007812 78.136719 15.246094 C 77.605469 17.953125 77.824219 267.121094 78.359375 267.769531 C 78.695312 268.171875 100.664062 268.242188 274.296875 268.414062 C 381.855469 268.519531 471.078125 268.621094 472.570312 268.640625 C 477.8125 268.707031 478.371094 268.652344 478.601562 268.085938 C 478.984375 267.140625 479.164062 17.582031 478.785156 15.542969 C 477.566406 8.992188 472.175781 3.824219 465.417969 2.726562 C 463.445312 2.40625 146.414062 2.390625 108.753906 2.710938 M 283.597656 11.445312 C 285.539062 13.386719 284.070312 16.601562 281.242188 16.601562 C 280.121094 16.601562 279.078125 15.84375 278.589844 14.671875 C 277.324219 11.640625 281.257812 9.105469 283.597656 11.445312 M 460.351562 137.929688 L 460.351562 253.824219 L 96.835938 253.824219 L 96.835938 22.03125 L 460.351562 22.03125 L 460.351562 137.929688 M 0 276.425781 L 0 279.710938 L 1.128906 279.304688 C 2.066406 278.972656 22.226562 278.898438 118.601562 278.886719 C 224.398438 278.875 234.953125 278.832031 235.121094 278.398438 C 235.472656 277.484375 235.316406 274.734375 234.894531 274.382812 C 234.589844 274.128906 213.644531 274.042969 155.054688 274.046875 C 84.53125 274.054688 75.570312 274.003906 75.121094 273.597656 C 74.675781 273.195312 70.207031 273.140625 37.308594 273.140625 L 0 273.140625 L 0 276.425781 M 482.050781 273.59375 C 481.644531 274.003906 473.035156 274.0625 403.925781 274.125 L 326.257812 274.195312 L 326.054688 276.160156 C 325.816406 278.445312 325.976562 279.292969 326.601562 279.050781 C 327.855469 278.570312 556.664062 278.855469 557.402344 279.339844 C 558.796875 280.257812 559.03125 279.808594 558.9375 276.390625 L 558.847656 273.292969 L 520.679688 273.210938 C 486.820312 273.144531 482.457031 273.1875 482.050781 273.59375 M 242.394531 274.269531 C 240.796875 274.425781 240.789062 274.441406 240.621094 277.117188 C 240.5 279.074219 240.554688 279.46875 240.984375 279.679688 C 241.628906 280 317.003906 280.171875 319.179688 279.859375 L 320.8125 279.625 L 320.828125 274.5 L 319.320312 274.296875 C 317.738281 274.089844 244.484375 274.058594 242.394531 274.269531 M 510.449219 275.566406 C 510.78125 275.742188 511.035156 276.195312 511.035156 276.609375 C 511.035156 277.820312 510.253906 277.96875 503.835938 277.96875 C 497.570312 277.96875 496.855469 277.832031 496.855469 276.609375 C 496.855469 275.394531 497.570312 275.253906 503.835938 275.253906 C 507.414062 275.253906 510.105469 275.378906 510.449219 275.566406 M 498.132812 276.53125 C 498.296875 277.015625 509.78125 277.09375 509.902344 276.609375 C 509.949219 276.417969 507.792969 276.28125 503.992188 276.226562 C 499.257812 276.164062 498.035156 276.226562 498.132812 276.53125 "/>
        <path style=" stroke:none;fill-rule:evenodd;fill:rgb(39.215686%,39.215686%,39.215686%);fill-opacity:1;" d="M 77.3125 269.21875 C 77.3125 269.964844 77.371094 270.269531 77.441406 269.894531 C 77.515625 269.523438 77.515625 268.910156 77.441406 268.539062 C 77.371094 268.164062 77.3125 268.46875 77.3125 269.21875 M 479.257812 270.648438 C 478.691406 271.5625 478.25 273.441406 478.601562 273.441406 C 478.988281 273.441406 479.871094 270.835938 479.582031 270.546875 C 479.492188 270.457031 479.34375 270.503906 479.257812 270.648438 M 77.414062 270.972656 C 77.21875 271.285156 77.753906 273.113281 78.167969 273.574219 C 78.667969 274.125 78.703125 273.550781 78.246094 272.226562 C 77.710938 270.671875 77.652344 270.585938 77.414062 270.972656 M 481.484375 272.207031 C 481.089844 272.949219 481.074219 273.746094 481.460938 273.746094 C 481.621094 273.746094 481.667969 273.519531 481.5625 273.25 C 481.449219 272.949219 481.578125 272.601562 481.890625 272.371094 C 482.203125 272.144531 482.289062 271.914062 482.105469 271.804688 C 481.9375 271.699219 481.660156 271.882812 481.484375 272.207031 M 1.734375 279.695312 C 2.347656 279.773438 2.714844 279.988281 2.714844 280.269531 C 2.714844 280.519531 2.855469 280.636719 3.019531 280.53125 C 3.191406 280.429688 3.265625 280.238281 3.1875 280.113281 C 2.976562 279.773438 3.792969 279.808594 6.464844 280.269531 C 10.808594 281.011719 549.738281 281.066406 552.632812 280.324219 C 553.808594 280.023438 554.007812 280.050781 554.367188 280.546875 C 554.757812 281.078125 554.777344 281.070312 554.777344 280.441406 C 554.777344 279.691406 555.3125 279.550781 555.570312 280.230469 C 555.667969 280.480469 555.867188 280.605469 556.019531 280.511719 C 556.171875 280.417969 556.203125 280.195312 556.09375 280.015625 C 555.957031 279.796875 556.175781 279.757812 556.769531 279.898438 C 557.410156 280.046875 557.519531 280.019531 557.191406 279.792969 C 556.273438 279.175781 328.296875 279.382812 324.578125 280.007812 C 320.183594 280.746094 241.078125 280.828125 238.320312 280.09375 C 236.882812 279.714844 220.949219 279.652344 118.707031 279.617188 C 53.832031 279.59375 1.195312 279.628906 1.734375 279.695312 "/>
        <path style=" stroke:none;fill-rule:evenodd;fill:rgb(36.078431%,36.078431%,36.078431%);fill-opacity:1;" d="M 281.59375 11.164062 C 282.246094 11.289062 283.027344 11.695312 283.328125 12.066406 C 283.628906 12.4375 283.875 12.601562 283.875 12.429688 C 283.875 11.824219 282.285156 10.863281 281.34375 10.898438 C 280.46875 10.933594 280.488281 10.949219 281.59375 11.164062 M 278.816406 13.582031 C 278.816406 14.164062 278.878906 14.402344 278.953125 14.109375 C 279.027344 13.820312 279.027344 13.34375 278.953125 13.054688 C 278.878906 12.761719 278.816406 13 278.816406 13.582031 M 280.464844 13.082031 C 280.230469 13.691406 280.707031 14.257812 281.347656 14.136719 C 282.261719 13.960938 282.277344 12.675781 281.363281 12.675781 C 280.953125 12.675781 280.550781 12.859375 280.464844 13.082031 M 75.058594 272.570312 C 75.125 273.046875 75.304688 273.441406 75.453125 273.441406 C 75.878906 273.441406 75.761719 272.015625 75.324219 271.847656 C 75.039062 271.734375 74.964844 271.9375 75.058594 272.570312 M 481.574219 272.699219 C 481.476562 272.957031 481.472656 273.242188 481.5625 273.335938 C 481.828125 273.597656 482.375 273.152344 482.375 272.667969 C 482.375 272.089844 481.800781 272.113281 481.574219 272.699219 M 0.976562 279.953125 C 1.074219 280.050781 1.332031 280.15625 1.558594 280.1875 C 1.777344 280.222656 2.132812 280.355469 2.339844 280.484375 C 2.578125 280.636719 2.714844 280.550781 2.714844 280.25 C 2.714844 279.925781 2.421875 279.78125 1.757812 279.78125 C 1.234375 279.78125 0.882812 279.859375 0.976562 279.953125 M 3.109375 280.207031 C 3.210938 280.777344 3.742188 280.992188 4.601562 280.8125 C 5.195312 280.6875 5.429688 280.757812 5.429688 281.0625 C 5.429688 281.515625 5.550781 281.554688 7.242188 281.683594 C 7.820312 281.726562 8.605469 281.933594 8.980469 282.144531 C 9.359375 282.351562 9.800781 282.441406 9.960938 282.34375 C 10.125 282.242188 10.257812 282.304688 10.257812 282.480469 C 10.257812 282.65625 10.359375 282.777344 10.484375 282.746094 C 10.605469 282.71875 11.21875 282.804688 11.84375 282.933594 C 12.613281 283.09375 13.121094 283.050781 13.425781 282.796875 C 13.792969 282.492188 13.878906 282.511719 13.878906 282.894531 C 13.878906 283.585938 14.378906 283.78125 15.128906 283.378906 C 15.679688 283.082031 15.859375 283.117188 16.203125 283.589844 C 16.628906 284.171875 16.777344 284.179688 17.410156 283.652344 C 17.609375 283.484375 17.945312 283.457031 18.152344 283.585938 C 18.363281 283.714844 18.914062 283.792969 19.375 283.757812 C 20.132812 283.699219 20.363281 283.945312 20.25 284.683594 C 20.207031 284.949219 21.3125 284.816406 21.613281 284.515625 C 21.96875 284.160156 22.3125 284.285156 22.148438 284.710938 C 22.0625 284.9375 22.195312 285.113281 22.457031 285.113281 C 22.710938 285.113281 22.996094 284.863281 23.09375 284.558594 C 23.386719 283.640625 24.628906 283.984375 25.054688 285.101562 C 25.207031 285.5 25.5625 285.808594 25.859375 285.792969 C 26.175781 285.777344 26.242188 285.707031 26.019531 285.617188 C 25.8125 285.53125 25.644531 285.203125 25.644531 284.886719 C 25.644531 283.972656 535.875 283.976562 536.363281 284.886719 C 536.570312 285.28125 536.570312 285.515625 536.363281 285.621094 C 536.195312 285.703125 536.230469 285.738281 536.441406 285.695312 C 536.652344 285.652344 536.871094 285.335938 536.917969 284.996094 C 537.023438 284.289062 537.972656 283.914062 538.449219 284.390625 C 538.667969 284.609375 538.902344 284.585938 539.222656 284.320312 C 539.601562 284.007812 539.71875 284.019531 539.863281 284.40625 C 540.074219 284.949219 541.203125 284.957031 541.203125 284.414062 C 541.203125 284.207031 541.359375 283.941406 541.554688 283.824219 C 541.792969 283.675781 541.84375 283.769531 541.714844 284.109375 C 541.496094 284.671875 541.738281 284.742188 542.40625 284.308594 C 542.65625 284.148438 542.726562 284.007812 542.558594 284 C 542.394531 283.992188 542.492188 283.851562 542.78125 283.683594 C 543.140625 283.472656 543.503906 283.484375 543.949219 283.722656 C 544.304688 283.914062 544.507812 283.933594 544.40625 283.765625 C 544.148438 283.347656 545.15625 283.011719 545.535156 283.390625 C 546.007812 283.867188 546.242188 283.769531 546.445312 283.023438 C 546.582031 282.53125 546.699219 282.449219 546.882812 282.734375 C 547.144531 283.140625 548.140625 282.929688 548.140625 282.460938 C 548.140625 282.3125 548.382812 282.339844 548.679688 282.523438 C 549.085938 282.78125 549.496094 282.742188 550.414062 282.363281 C 551.070312 282.085938 551.675781 281.855469 551.757812 281.851562 C 551.84375 281.84375 552.078125 281.703125 552.285156 281.53125 C 552.488281 281.363281 552.863281 281.300781 553.113281 281.398438 C 553.402344 281.507812 553.570312 281.398438 553.570312 281.097656 C 553.570312 280.789062 553.738281 280.683594 554.046875 280.804688 C 554.351562 280.921875 554.476562 280.851562 554.394531 280.609375 C 554.316406 280.386719 553.910156 280.28125 553.390625 280.351562 C 552.910156 280.414062 512.128906 280.511719 462.765625 280.570312 C 413.40625 280.628906 343.21875 280.710938 306.800781 280.753906 C 156.527344 280.941406 9 280.699219 6.464844 280.269531 C 3.625 279.78125 3.03125 279.769531 3.109375 280.207031 M 554.777344 280.351562 C 554.777344 280.78125 554.914062 280.914062 555.242188 280.789062 C 555.757812 280.59375 555.695312 280.035156 555.132812 279.847656 C 554.9375 279.785156 554.777344 280.003906 554.777344 280.351562 M 27.984375 285.453125 C 27.886719 285.824219 28.019531 286.011719 28.402344 286.039062 C 28.867188 286.074219 28.90625 285.980469 28.648438 285.496094 C 28.261719 284.773438 28.164062 284.765625 27.984375 285.453125 M 534.179688 285.492188 C 534.070312 285.917969 534.175781 286.066406 534.574219 286.035156 C 535.003906 286.003906 535.058594 285.875 534.832031 285.453125 C 534.46875 284.769531 534.367188 284.773438 534.179688 285.492188 M 531.730469 285.992188 C 531.617188 286.285156 531.6875 286.425781 531.90625 286.351562 C 532.355469 286.199219 532.605469 285.515625 532.207031 285.515625 C 532.046875 285.515625 531.832031 285.730469 531.730469 285.992188 "/>
        <path style=" stroke:none;fill-rule:evenodd;fill:rgb(54.901961%,54.901961%,54.901961%);fill-opacity:1;" d="M 90.199219 1.976562 C 83.878906 3.347656 78.386719 8.699219 77.261719 14.601562 C 77.070312 15.589844 76.917969 61.148438 76.835938 140.382812 C 76.71875 254.9375 76.671875 264.671875 76.214844 265.324219 C 75.851562 265.84375 75.71875 266.707031 75.71875 268.5625 L 75.71875 271.09375 L 75.125 270.382812 L 74.53125 269.667969 L 74.523438 270.640625 C 74.515625 271.351562 74.625 271.570312 74.933594 271.449219 C 75.441406 271.257812 75.578125 271.460938 75.867188 272.808594 C 76.066406 273.726562 76.03125 273.8125 75.527344 273.621094 C 75.128906 273.46875 75.058594 273.5 75.289062 273.730469 C 75.515625 273.960938 98.839844 274.050781 155.046875 274.046875 C 213.640625 274.042969 234.589844 274.128906 234.894531 274.382812 C 235.34375 274.753906 235.464844 277.851562 235.058594 278.496094 C 234.867188 278.796875 210.820312 278.886719 118.089844 278.949219 C 40.945312 279 1.183594 279.128906 0.851562 279.328125 C 0.511719 279.527344 39.589844 279.632812 118.503906 279.640625 C 221.054688 279.652344 236.882812 279.710938 238.320312 280.09375 C 241.117188 280.835938 319.386719 280.742188 324.601562 279.992188 C 328.1875 279.472656 333.914062 279.453125 443.085938 279.539062 C 534.917969 279.613281 557.703125 279.554688 557.289062 279.253906 C 556.917969 278.980469 555.140625 278.875 551.023438 278.867188 C 482.28125 278.800781 326.921875 278.929688 326.597656 279.054688 C 325.976562 279.292969 325.816406 278.441406 326.054688 276.160156 L 326.257812 274.195312 L 403.925781 274.125 C 472.742188 274.0625 481.636719 274.003906 481.984375 273.597656 C 482.199219 273.347656 482.214844 273.277344 482.015625 273.445312 C 481.078125 274.21875 480.792969 272.921875 481.695312 271.996094 C 482.410156 271.261719 482.5 270.507812 481.9375 269.941406 C 481.675781 269.683594 481.457031 268.914062 481.441406 268.214844 C 481.410156 267.015625 480.960938 265.027344 480.898438 265.820312 C 480.878906 266.03125 480.730469 266.199219 480.566406 266.199219 C 480.367188 266.199219 480.25 246.980469 480.222656 209.230469 C 480.199219 177.898438 480.09375 121.367188 479.988281 83.601562 L 479.796875 14.9375 L 479.066406 13.128906 C 476.820312 7.558594 472.910156 3.910156 467.351562 2.195312 C 464.976562 1.464844 93.574219 1.25 90.199219 1.976562 M 465.417969 2.726562 C 472.175781 3.824219 477.566406 8.992188 478.785156 15.542969 C 479.164062 17.582031 478.984375 267.140625 478.601562 268.085938 C 478.371094 268.652344 477.8125 268.707031 472.570312 268.640625 C 471.078125 268.621094 381.855469 268.519531 274.296875 268.414062 C 100.664062 268.242188 78.695312 268.171875 78.359375 267.769531 C 77.824219 267.121094 77.605469 17.953125 78.136719 15.246094 C 79.167969 10.007812 83.042969 5.542969 88.425781 3.398438 C 89.617188 2.921875 91.613281 2.855469 108.753906 2.710938 C 146.414062 2.390625 463.445312 2.40625 465.417969 2.726562 M 279.40625 11.316406 C 278.339844 12.210938 278.054688 13.390625 278.589844 14.671875 C 279.949219 17.929688 284.476562 16.828125 284.476562 13.242188 C 284.476562 10.921875 281.304688 9.71875 279.40625 11.316406 M 282.996094 11.253906 C 285.816406 13.417969 282.785156 17.773438 279.8125 15.824219 C 278.292969 14.828125 278.3125 12.101562 279.847656 11.207031 C 280.597656 10.769531 282.402344 10.796875 282.996094 11.253906 M 77.441406 269.894531 C 77.371094 270.269531 77.3125 269.964844 77.3125 269.21875 C 77.3125 268.46875 77.371094 268.164062 77.441406 268.539062 C 77.515625 268.910156 77.515625 269.523438 77.441406 269.894531 M 479.359375 272.074219 C 479.152344 272.828125 478.808594 273.441406 478.601562 273.441406 C 478.25 273.441406 478.691406 271.5625 479.257812 270.648438 C 479.652344 270.007812 479.710938 270.828125 479.359375 272.074219 M 78.246094 272.226562 C 78.703125 273.550781 78.667969 274.125 78.167969 273.574219 C 77.753906 273.113281 77.21875 271.285156 77.414062 270.972656 C 77.652344 270.585938 77.710938 270.671875 78.246094 272.226562 M 319.320312 274.296875 L 320.828125 274.5 L 320.8125 279.625 L 319.179688 279.859375 C 317.003906 280.171875 241.628906 280 240.984375 279.679688 C 240.464844 279.425781 240.460938 275.101562 240.976562 274.59375 C 241.46875 274.113281 315.8125 273.835938 319.320312 274.296875 M 497.328125 275.726562 C 495.570312 277.484375 496.972656 277.96875 503.835938 277.96875 C 510.253906 277.96875 511.035156 277.820312 511.035156 276.609375 C 511.035156 275.398438 510.253906 275.253906 503.835938 275.253906 C 498.753906 275.253906 497.730469 275.328125 497.328125 275.726562 M 509.902344 276.609375 C 509.78125 277.09375 498.296875 277.015625 498.132812 276.53125 C 498.035156 276.226562 499.257812 276.164062 503.992188 276.226562 C 507.792969 276.28125 509.949219 276.417969 509.902344 276.609375 "/>
    </g>
</svg>
